<?xml version="1.0" encoding="UTF-8"?>
<svg id="Layer_1" xmlns="http://www.w3.org/2000/svg" version="1.1" viewBox="0 0 110.75 80.38">
  <!-- Generator: Adobe Illustrator 29.8.2, SVG Export Plug-In . SVG Version: 2.1.1 Build 3)  -->
  <defs>
    <style>
      .st0 {
        fill: #fff;
      }
    </style>
  </defs>
  <path class="st0" d="M75.92.34c-4.96-.51-8.94-.1-13.23.64,4.75,3.08,8.55,6.56,10.29,12.11,23.19-.39,35.14,30.39,21.24,44.29-1.23,1.23-2.9,2.65-4.92,3.93-5.92,3.76-12.72,5.92-19.7,6.52-1.67.15-3.1-1.16-3.11-2.84l-.15-23.5c-.01-1.89-1.3-3.54-3.13-4h-.02c-5.94-1.56-5.54-5.54.2-6.51-1.06-.88-2.1-.91-2.66-2.39-1.67-4.37,3.09-3.84,5.26-5.5,2.2-1.69,2.52-6.11,6.05-4.94-.02-8.69-6.94-15.26-15.06-17.16-5.85-1.37-14.83-1.13-20.84-.34C6.35,4.57-10.63,38.06,7.39,63.4c8.62,12.13,17.95,16.47,32.41,16.98h.89c5.83,0,10.6-4.78,10.6-10.61v-20.75c0-3.01-2.44-5.45-5.45-5.45h-15.79v1.73c0,5.32,4.31,9.63,9.63,9.63v11.33c0,1.08-.87,1.89-1.95,1.79-19.78-1.83-32.99-23.42-21.86-41.49,3.31-5.37,8.75-9.93,14.89-11.9,1.95-.62,3.8,1.21,3.29,3.19-.77,3-1.01,6.09-.7,9.09.81,7.67,8.13,13.91,15.85,13.91,2.72,0,4.94,2.19,4.97,4.91l.31,23.9c0,9.49,8.21,10.71,17.17,10.71,11.08-.66,21.93-4.93,29.36-13.86C122.8,40.34,105.17,3.34,75.92.34ZM56.71,20.01c-3.76-.76-3.63-6.62-.05-7.24,5.33-.93,5.74,8.4.05,7.24Z"/>
  <path class="st0" d="M85.12,24.44c-.32-1.71-4.12-.36-5.31-.35-1.49.02-3.83-.78-5.05-1.64-.96-.69-2.64-3.21-3.79-3.03-1,.15-2.84,3.86-4.25,4.9-1.32.97-4.56,1.29-4.81,2.6-.44,2.32,2.19,2.06,3.7,2.71,1.39.59,2.55,1.5,4.14,2.04,3.13,1.06,7.41,1.64,9.44-1.54-1.41-.29-2.88.35-4.31.38-2.83.06-7.22-.73-9.27-2.73,4.74,1.24,10.22,1.96,15.01.56,1.7-.5,4.91-1.72,4.5-3.89h0ZM71.2,24.29c-.91-.6-.6-1.92.27-2.16,2.41-.68,1.67,3.45-.27,2.16Z"/>
</svg>
